Coordinates
version=1
nRows=29
nColumns=24
inDegrees=yes

Units are S.I. units (second, meters, Newtons, ...)
Angles are in degrees.

endheader
time	pelvis_tilt	pelvis_list	pelvis_rotation	pelvis_tx	pelvis_ty	pelvis_tz	hip_flexion_r	hip_adduction_r	hip_rotation_r	knee_angle_r	ankle_angle_r	subtalar_angle_r	mtp_angle_r	hip_flexion_l	hip_adduction_l	hip_rotation_l	knee_angle_l	ankle_angle_l	subtalar_angle_l	mtp_angle_l	lumbar_extension	lumbar_bending	lumbar_rotation
      1.37500000	      4.11155055	      2.98600100	     -0.46447486	      0.23588942	      1.07413284	      0.32616003	     10.47811992	     -4.21331602	     -2.32323264	    -66.57313959	     -6.06629165	    -13.49963985	      6.32975778	      3.68031836	      7.36720965	     -3.87914689	     -9.63356829	      2.15799944	     -0.91788882	      0.66311689	     -1.30663825	     -0.33214366	      0.49047911
      1.37916667	      4.12503774	      2.88916246	     -0.39770335	      0.24089914	      1.07475731	      0.32606274	     11.04903801	     -4.05059861	     -2.20812003	    -66.52900627	     -5.34156546	    -14.06761797	      6.20580392	      3.32789885	      7.25876663	     -3.89003322	     -9.58276579	      2.38916142	     -0.80526207	      0.64366149	     -1.33950891	     -0.27267767	      0.42397878
      1.38333333	      4.13033513	      2.84017018	     -0.40520788	      0.24588675	      1.07532182	      0.32582936	     11.64338126	     -3.95504978	     -2.00452830	    -66.44183420	     -4.79480516	    -14.46072743	      6.12782446	      2.95598027	      7.23048568	     -3.79154937	     -9.46233128	      2.54579907	     -0.69596297	      0.63193547	     -1.39884624	     -0.12487214	      0.35326996
      1.38750000	      4.13453688	      2.76131496	     -0.36502003	      0.25091837	      1.07590402	      0.32568933	     12.20471199	     -3.81361805	     -1.87262241	    -66.29385810	     -4.11747709	    -14.90149367	      6.03966160	      2.59265163	      7.15297048	     -3.76613215	     -9.35453538	      2.74950416	     -0.61682290	      0.61756638	     -1.43839476	     -0.03713199	      0.29003741
      1.39166667	      4.13324283	      2.68960715	     -0.33348992	      0.25590762	      1.07645877	      0.32554892	     12.76530082	     -3.67833860	     -1.72131582	    -66.08678401	     -3.52670036	    -15.25328512	      5.95295628	      2.23283380	      7.08646072	     -3.71693846	     -9.24235884	      2.93181434	     -0.52512193	      0.60260077	     -1.47969724	      0.06027680	      0.22430502
      1.39583333	      4.13466776	      2.60983263	     -0.29646170	      0.26088754	      1.07700242	      0.32542735	     13.30588433	     -3.53027678	     -1.57584382	    -65.82148472	     -2.92619503	    -15.56750310	      5.85815092	      1.86875110	      7.00946500	     -3.67747341	     -9.12786456	      3.12153029	     -0.43854697	      0.58486854	     -1.51527706	      0.15244343	      0.15624577
      1.40000000	      4.13306028	      2.54006893	     -0.26353551	      0.26584912	      1.07751831	      0.32531854	     13.83913232	     -3.39152569	     -1.42869613	    -65.50686144	     -2.36066202	    -15.81520962	      5.76114583	      1.50358364	      6.94449888	     -3.62558483	     -8.99878436	      3.29924432	     -0.35633757	      0.56529416	     -1.55590216	      0.23668993	      0.08771887
      1.40416667	      4.12994352	      2.47335957	     -0.23353860	      0.27082994	      1.07801576	      0.32524593	     14.35799980	     -3.24984477	     -1.27957831	    -65.13892174	     -1.82281188	    -16.01227939	      5.67123528	      1.13179800	      6.88259297	     -3.56074824	     -8.85148521	      3.46387763	     -0.28950599	      0.54595971	     -1.58912872	      0.32284234	      0.02040522
      1.40833333	      4.12525646	      2.40422394	     -0.19500918	      0.27580580	      1.07849659	      0.32518423	     14.85960138	     -3.10475293	     -1.13702811	    -64.71617210	     -1.26567905	    -16.16266911	      5.56838137	      0.76179984	      6.81556372	     -3.50618699	     -8.71247510	      3.63560465	     -0.23482033	      0.52198899	     -1.62756676	      0.39614104	     -0.05265590
      1.41250000	      4.11237264	      2.33587934	     -0.12920208	      0.28075825	      1.07894065	      0.32514243	     15.35091878	     -2.96041389	     -1.02542044	    -64.24153561	     -0.69161863	    -16.22138640	      5.41650135	      0.40606500	      6.74573568	     -3.46484261	     -8.57745710	      3.81724353	     -0.18328200	      0.48289122	     -1.67932872	      0.43613246	     -0.14123603
      1.41666667	      4.08994897	      2.27729922	     -0.10927048	      0.28568090	      1.07932780	      0.32517395	     15.85188747	     -2.81229178	     -0.84959802	    -63.70228627	     -0.46322739	    -16.26382681	      5.37936002	      0.04548207	      6.68752510	     -3.36620006	     -8.40536301	      3.87857512	     -0.15670957	      0.47347467	     -1.74073616	      0.47022674	     -0.17793353
      1.42083333	      4.10699562	      2.24155483	     -0.11238963	      0.29068419	      1.07974267	      0.32508355	     16.29371864	     -2.70556980	     -0.69381794	    -63.14993207	      0.14665314	    -16.35099746	      5.29033627	     -0.38218693	      6.67612199	     -3.27548741	     -8.17848775	      4.05881184	     -0.15321203	      0.44910180	     -1.71020906	      0.58924437	     -0.25764882
      1.42500000	      4.09776047	      2.19862445	     -0.07233901	      0.29564165	      1.08009755	      0.32509040	     16.74033637	     -2.58134896	     -0.55757549	    -62.53143379	      0.64592723	    -16.31806305	      5.18883914	     -0.76767583	      6.63923132	     -3.18325476	     -7.98636682	      4.20491429	     -0.15923759	      0.41863273	     -1.74956264	      0.62210670	     -0.33681544
      1.42916667	      4.05514567	      2.15930634	     -0.02075187	      0.30053484	      1.08036821	      0.32517729	     17.21320160	     -2.45384038	     -0.42413443	    -61.84802222	      0.85744050	    -16.29899349	      5.15093127	     -1.10290573	      6.59516951	     -3.12021484	     -7.81548275	      4.26503888	     -0.16181716	      0.40685410	     -1.83261623	      0.60485960	     -0.37143678
      1.43333333	      4.06829592	      2.13652015	     -0.01836969	      0.30557266	      1.08068651	      0.32514822	     17.60285317	     -2.35550880	     -0.27772639	    -61.14104413	      1.36300469	    -16.23113106	      5.06034739	     -1.54326777	      6.59539795	     -3.00734064	     -7.56052667	      4.42588180	     -0.19523762	      0.37718081	     -1.77976311	      0.67927960	     -0.45975717
      1.43750000	      4.06321025	      2.10984080	      0.06872830	      0.31048527	      1.08095272	      0.32511302	     17.98877013	     -2.26579885	     -0.19452275	    -60.38158795	      1.91582141	    -15.91059334	      4.84973060	     -1.93159227	      6.57521857	     -2.89445501	     -7.37163741	      4.57733527	     -0.30598398	      0.30083827	     -1.89917780	      0.68289697	     -0.62916392
      1.44166667	      4.01091336	      2.10938332	      0.08803721	      0.31541081	      1.08109341	      0.32526229	     18.43064024	     -2.17259534	     -0.04020107	    -59.56832462	      2.02912232	    -15.89826490	      4.81903759	     -2.28008470	      6.57772921	     -2.81853213	     -7.14776557	      4.60650519	     -0.29517669	      0.29015921	     -1.94793913	      0.63249417	     -0.65112306
      1.44583333	      3.96982912	      2.10978171	      0.09619086	      0.32039985	      1.08122345	      0.32541318	     18.83517855	     -2.07953486	      0.11492602	    -58.70414138	      2.19569291	    -15.87370139	      4.78441463	     -2.65611900	      6.58371972	     -2.74008121	     -6.89969468	      4.66720642	     -0.30655613	      0.27761068	     -1.94612151	      0.59844219	     -0.68115629
      1.45000000	      4.00414326	      2.12578305	      0.12673302	      0.32536886	      1.08141323	      0.32530724	     19.13563393	     -2.04336455	      0.22366636	    -57.82012373	      2.68968994	    -15.44272030	      4.46211363	     -3.13464766	      6.63382484	     -2.50541700	     -6.60899862	      4.80344691	     -0.54336893	      0.14498599	     -1.97709550	      0.61132683	     -0.93538556
      1.45416667	      3.94340104	      2.13932157	      0.14961693	      0.33036599	      1.08144557	      0.32551539	     19.52283106	     -1.96206871	      0.35839895	    -56.85807411	      2.77449628	    -15.44151648	      4.42558636	     -3.48550579	      6.64482696	     -2.47285215	     -6.37095143	      4.83782986	     -0.55263709	      0.13051374	     -1.98067996	      0.53940441	     -0.94819552
      1.45833333	      3.92179710	      2.16206782	      0.13390024	      0.33545735	      1.08149650	      0.32564113	     19.84783393	     -1.89843135	      0.49741332	    -55.85711258	      2.86785426	    -15.39742901	      4.36321950	     -3.90823881	      6.68442765	     -2.40952793	     -6.07640219	      4.91190136	     -0.59088591	      0.10451481	     -1.89746345	      0.50440170	     -0.98479418
      1.46250000	      3.88067241	      2.18853063	      0.13044884	      0.34049762	      1.08147571	      0.32579946	     20.17888340	     -1.83809749	      0.62643854	    -54.80922325	      2.94312057	    -15.32313789	      4.29796270	     -4.30026260	      6.72131916	     -2.34096269	     -5.79936340	      4.98668667	     -0.64572133	      0.07582626	     -1.88076129	      0.45070059	     -1.02967979
      1.46666667	      3.79571890	      2.23496980	      0.14717277	      0.34549195	      1.08134803	      0.32602459	     20.54163378	     -1.79369699	      0.75324805	    -53.72580834	      3.00969214	    -15.28454946	      4.26655877	     -4.62831126	      6.76854034	     -2.29721725	     -5.56125260	      5.03443394	     -0.66998168	      0.06188092	     -1.91819064	      0.36984801	     -1.05092704
      1.47083333	      3.79189215	      2.27462146	      0.12047353	      0.35062674	      1.08131325	      0.32615135	     20.78684033	     -1.75148818	      0.87631531	    -52.58267426	      3.00644825	    -15.17142179	      4.19574094	     -5.08495216	      6.82806433	     -2.21621441	     -5.24335637	      5.12153873	     -0.74939915	      0.02804143	     -1.81886197	      0.31572302	     -1.10966754
      1.47500000	      3.68137981	      2.32892083	      0.12134944	      0.35566993	      1.08107235	      0.32634671	     21.14254540	     -1.72074500	      0.96987704	    -51.42087858	      3.05468914	    -15.14279184	      4.17299605	     -5.39284366	      6.89009883	     -2.19546659	     -4.98027891	      5.16385478	     -0.77084446	      0.01733598	     -1.88681226	      0.21873966	     -1.12587347
      1.47916667	      3.68348775	      2.37183904	      0.08272027	      0.36082550	      1.08097844	      0.32651797	     21.33757035	     -1.67566569	      1.09490452	    -50.17399099	      2.96104861	    -15.04512462	      4.10776853	     -5.86049368	      6.95072350	     -2.11490613	     -4.66393701	      5.24414160	     -0.85578356	     -0.01587308	     -1.75160171	      0.15222723	     -1.18331739
      1.48333333	      3.63646666	      2.42076027	      0.05674370	      0.36594773	      1.08076895	      0.32669989	     21.57253112	     -1.63926446	      1.19662477	    -48.89700717	      2.87119207	    -14.98446572	      4.04395951	     -6.26022381	      7.01227445	     -2.05776700	     -4.37239267	      5.30501497	     -0.93658931	     -0.04985340	     -1.71635220	      0.07579887	     -1.23973770
      1.48750000	      3.52018506	      2.49099588	      0.03849686	      0.37101893	      1.08040152	      0.32694797	     21.87430660	     -1.62052530	      1.28559545	    -47.60554203	      2.88098641	    -14.96882978	      4.01936415	     -6.56352359	      7.08817309	     -2.04496509	     -4.11617652	      5.34671629	     -0.96429036	     -0.06269721	     -1.76980309	     -0.03666055	     -1.25454424
      1.49166667	      3.52067291	      2.54383174	     -0.02502065	      0.37620466	      1.08018058	      0.32711680	     22.01393259	     -1.58701987	      1.38167749	    -46.23231049	      2.68534116	    -14.91987221	      3.96207263	     -7.02800484	      7.16405356	     -1.99826805	     -3.80444118	      5.42446002	     -1.03875237	     -0.09426259	     -1.60134154	     -0.12077535	     -1.29637907
